# xmcd
#
# Track frame offsets:
#	150
#	10924
#	24265
#	36160
#	50141
#	62169
#	76429
#	87487
#	100373
#	113988
#	127701
#	133097
#	146067
#	162172
#	175295
#	190172
#	211543
#	225803
#	240976
#	253323
#	269755
#	280357
#
# Disc length: 3904 seconds
#
# Revision: 0
# Processed by: cddbd v1.5.2PL0 Copyright (c) Steve Scherf et al.
# Submitted via: EasyCDDAExtractor 16.0.1.1
#
DISCID=350f3e16
DTITLE=Livingston Taylor - Livingston Taylor and Liv
DYEAR=1970
DGENRE=Country
TTITLE0=Sit on Back
TTITLE1=Doctor Man
TTITLE2=Six Days on the Road
TTITLE3=Packet of Good Times
TTITLE4=Hush a Bye
TTITLE5=Carolina Day
TTITLE6=Can't Get Back Home
TTITLE7=In My Reply
TTITLE8=Lost in the Love of You
TTITLE9=Good Friends
TTITLE10=Thank You Song
TTITLE11=Get Out Of Bed
TTITLE12=May I Stay Around
TTITLE13=Open Up Your Eyes
TTITLE14=Gentle Man
TTITLE15=Easy Prey
TTITLE16=Be That Way
TTITLE17=Truck Drivin' Man
TTITLE18=Mom Dad
TTITLE19=On Broadway
TTITLE20=Caroline
TTITLE21=Just Can't Be Lonesome No More
EXTD=
EXTT0=
EXTT1=
EXTT2=
EXTT3=
EXTT4=
EXTT5=
EXTT6=
EXTT7=
EXTT8=
EXTT9=
EXTT10=
EXTT11=
EXTT12=
EXTT13=
EXTT14=
EXTT15=
EXTT16=
EXTT17=
EXTT18=
EXTT19=
EXTT20=
EXTT21=
PLAYORDER=
